<?xml version="1.0" encoding="UTF-8" standalone="no"?>
<!DOCTYPE svg PUBLIC "-//W3C//DTD SVG 1.1//EN" "http://www.w3.org/Graphics/SVG/1.1/DTD/svg11.dtd">
<!-- Created with Vectornator (http://vectornator.io/) -->
<svg height="100%" stroke-miterlimit="10" style="fill-rule:nonzero;clip-rule:evenodd;stroke-linecap:round;stroke-linejoin:round;" version="1.1" viewBox="0 0 111.29 111.29" width="100%" xml:space="preserve" xmlns="http://www.w3.org/2000/svg" xmlns:xlink="http://www.w3.org/1999/xlink">
<defs/>
<g id="Untitled">
<path d="M99.192 12.1L12.1 12.1L12.1 99.192L99.192 99.192C99.192 99.192 99.192 12.1 99.192 12.1Z" fill="#010101" fill-rule="evenodd" opacity="1" stroke="none"/>
<path d="M54.281 82.878L21.589 82.878L21.589 88.338L54.281 88.338L54.281 82.878ZM20.224 34.588L22.629 32.313C23.279 33.093 23.929 33.548 24.774 33.548C25.684 33.548 26.334 32.898 26.334 31.663L26.334 23.083L30.104 23.083L30.104 31.728C30.104 33.418 29.648 34.653 28.738 35.562C27.828 36.472 26.593 36.927 25.034 36.927C22.629 36.862 21.199 35.887 20.224 34.587L20.224 34.588ZM31.728 23.018L42.711 23.018L42.711 26.204L35.496 26.204L35.496 28.284L41.996 28.284L41.996 31.273L35.496 31.273L35.496 33.418L42.776 33.418L42.776 36.602L31.726 36.602L31.726 23.02L31.728 23.018ZM48.041 26.334L43.947 26.334L43.947 23.019L55.841 23.019L55.841 26.333L51.811 26.333L51.811 36.603L48.041 36.603L48.041 26.333L48.041 26.334ZM21.719 41.996L28.153 41.996C29.843 41.996 31.078 42.451 31.858 43.231C32.378 43.816 32.703 44.531 32.703 45.441L32.703 45.506C32.703 47.066 31.793 48.04 30.623 48.56C32.248 49.08 33.353 50.055 33.353 51.875L33.353 51.94C33.353 54.28 31.468 55.71 28.218 55.71L21.784 55.71L21.784 41.997L21.719 41.997L21.719 41.996ZM28.999 46.156C28.999 45.376 28.413 44.986 27.309 44.986L25.423 44.986L25.423 47.391L27.243 47.391C28.348 47.391 28.998 47.001 28.998 46.156L28.999 46.156ZM27.699 50.055L25.359 50.055L25.359 52.59L27.699 52.59C28.869 52.59 29.519 52.135 29.519 51.355L29.519 51.29C29.583 50.51 28.999 50.055 27.699 50.055ZM34.523 41.996L40.567 41.996C42.647 41.996 44.077 42.516 44.987 43.426C45.767 44.206 46.222 45.246 46.222 46.611L46.222 46.676C46.222 48.755 45.117 50.12 43.427 50.9L46.677 55.645L42.321 55.645L39.591 51.55L38.356 51.55L38.356 55.645L34.586 55.645L34.586 41.997L34.522 41.997L34.523 41.996ZM40.437 48.495C41.672 48.495 42.452 47.846 42.452 46.871L42.452 46.806C42.452 45.701 41.672 45.181 40.437 45.181L38.357 45.181L38.357 48.495C38.357 48.495 40.437 48.495 40.437 48.495Z" fill="#ffffff" fill-rule="evenodd" opacity="1" stroke="none"/>
<path d="M51.421 41.867L55.061 41.867L60.845 55.581L56.816 55.581L55.841 53.111L50.576 53.111L49.601 55.581L45.701 55.581L51.421 41.867ZM54.736 50.186L53.241 46.351L51.681 50.186C51.681 50.186 54.736 50.186 54.736 50.186ZM65.2 41.932L61.43 41.932L61.43 55.516L65.2 55.516C65.2 55.516 65.2 41.932 65.2 41.932ZM66.63 41.932L70.139 41.932L75.079 49.146L75.079 41.932L78.783 41.932L78.783 55.516L75.469 55.516L70.399 48.106L70.399 55.516L66.63 55.516C66.63 55.516 66.63 41.932 66.63 41.932ZM79.433 53.501L81.513 50.966C82.878 52.006 84.373 52.591 85.933 52.591C86.973 52.591 87.493 52.266 87.493 51.681L87.493 51.616C87.493 51.031 87.038 50.771 85.153 50.316C82.228 49.666 80.018 48.821 80.018 46.092L80.018 46.027C80.018 43.492 82.033 41.672 85.283 41.672C87.623 41.672 89.377 42.322 90.872 43.492L88.987 46.157C87.753 45.247 86.388 44.792 85.153 44.792C84.243 44.792 83.788 45.182 83.788 45.637L83.788 45.702C83.788 46.352 84.243 46.612 86.128 47.002C89.247 47.652 91.197 48.691 91.197 51.226L91.197 51.291C91.197 54.086 88.987 55.711 85.673 55.711C83.398 55.776 81.123 54.996 79.433 53.501Z" fill="#ffffff" fill-rule="evenodd" opacity="1" stroke="none"/>
</g>
</svg>
